<?xml version="1.0" encoding="UTF-8" standalone="no" ?>
<!DOCTYPE svg PUBLIC "-//W3C//DTD SVG 1.1//EN" "http://www.w3.org/Graphics/SVG/1.1/DTD/svg11.dtd">
<svg xmlns="http://www.w3.org/2000/svg" xmlns:xlink="http://www.w3.org/1999/xlink" version="1.1" width="50" height="40" viewBox="0 0 50 40" xml:space="preserve">
<desc>Created with Fabric.js 4.6.0</desc>
<defs>
</defs>
<g transform="matrix(0.08 0 0 0.08 29 20)" id="XMJMUZDIs-_-RV_ngbvKb"  >
<g style="" vector-effect="non-scaling-stroke"   >
		<g transform="matrix(1 0 0 1 63.97 -63.97)" id="f7ltCeSv0ZBdBu-T8nUkV"  >
<path style="stroke: none; stroke-width: 1; stroke-dasharray: none; stroke-linecap: butt; stroke-dashoffset: 0; stroke-linejoin: miter; stroke-miterlimit: 4; fill: rgb(86,81,100); fill-rule: nonzero; opacity: 1;" vector-effect="non-scaling-stroke"  transform=" translate(-319.97, -192.03)" d="M 413.645 294.194 C 413.14099999999996 294.656 412.63399999999996 295.113 412.12399999999997 295.56600000000003 C 412.395 295.326 412.664 295.084 412.93499999999995 294.84000000000003 L 413.645 294.194 L 413.645 294.194 z M 319.971 149.522 C 334.867 149.522 349.761 155.202 361.126 166.56799999999998 C 368.623 174.06699999999998 373.649 183.1 376.18899999999996 192.66199999999998 C 378.83099999999996 202.51699999999997 378.83099999999996 212.93099999999998 376.18899999999996 222.789 C 373.64899999999994 232.349 368.623 241.384 361.126 248.88099999999997 C 349.76099999999997 260.246 334.864 265.929 319.969 265.929 C 305.075 265.92699999999996 290.181 260.246 278.816 248.88099999999997 C 271.32 241.38199999999998 266.294 232.34699999999998 263.75199999999995 222.78699999999998 C 261.11199999999997 212.932 261.11199999999997 202.51599999999996 263.75199999999995 192.65999999999997 C 266.2939999999999 183.09999999999997 271.31999999999994 174.06799999999998 278.816 166.56799999999998 C 290.181 155.202 305.075 149.52 319.971 149.522 L 319.971 149.522 z M 322.574 330.613 C 356.55600000000004 329.982 388.024 317.009 412.124 295.56600000000003 C 411.91 295.76000000000005 411.69 295.95000000000005 411.473 296.141 C 387.459 317.242 356.25 329.986 322.574 330.613 L 322.574 330.613 z M 319.973 373.283 C 277.60400000000004 373.283 238.62800000000001 358.748 207.762 334.387 C 196.569 325.552 186.441 315.426 177.606 304.231 C 153.248 273.36899999999997 138.712 234.39499999999998 138.712 192.027 C 138.712 91.92099999999999 219.865 10.768 319.97299999999996 10.768 C 420.07499999999993 10.768 501.22999999999996 91.921 501.22999999999996 192.027 C 501.23 292.136 420.078 373.286 319.973 373.283 z" stroke-linecap="round" />
</g>
		<g transform="matrix(1 0 0 1 -158.48 158.48)" id="UeO0kdtLkjg_nh4ZxMNO6"  >
<path style="stroke: none; stroke-width: 1; stroke-dasharray: none; stroke-linecap: butt; stroke-dashoffset: 0; stroke-linejoin: miter; stroke-miterlimit: 4; fill: rgb(86,81,100); fill-rule: nonzero; opacity: 1;" vector-effect="non-scaling-stroke"  transform=" translate(-97.52, -414.48)" d="M 176.721 365.43 L 146.565 335.274 L 139.027 327.734 L 20.1 446.662 C 7.660000000000002 459.102 7.660000000000002 479.45599999999996 20.1 491.89599999999996 C 32.542 504.33899999999994 52.897 504.33899999999994 65.33500000000001 491.89599999999996 L 184.264 372.97 L 176.721 365.43 z" stroke-linecap="round" />
</g>
		<g transform="matrix(1 0 0 1 -78.84 78.83)" id="g2nlTzWFD-r3SVudfj5o_"  >
<path style="stroke: none; stroke-width: 1; stroke-dasharray: none; stroke-linecap: butt; stroke-dashoffset: 0; stroke-linejoin: miter; stroke-miterlimit: 4; fill: rgb(255,205,133); fill-rule: nonzero; opacity: 1;" vector-effect="non-scaling-stroke"  transform=" translate(-177.16, -334.83)" d="M 177.606 304.23 L 146.565 335.274 L 176.721 365.43 L 207.762 334.386 C 196.57 325.552 186.441 315.426 177.606 304.23 z" stroke-linecap="round" />
</g>
		<g transform="matrix(1 0 0 1 63.97 -63.97)" id="vr9mpn87hUJ1iMEP2k69H"  >
<path style="stroke: none; stroke-width: 1; stroke-dasharray: none; stroke-linecap: butt; stroke-dashoffset: 0; stroke-linejoin: miter; stroke-miterlimit: 4; fill: rgb(167,226,222); fill-rule: nonzero; opacity: 1;" vector-effect="non-scaling-stroke"  transform=" translate(-319.97, -192.03)" d="M 181.359 192.027 C 181.359 268.578 243.417 330.63599999999997 319.96900000000005 330.63599999999997 C 320.05500000000006 330.63599999999997 320.14500000000004 330.63599999999997 320.22900000000004 330.63599999999997 C 355.48900000000003 330.57099999999997 388.18300000000005 317.21299999999997 412.93600000000004 294.84099999999995 C 413.17300000000006 294.626 413.408 294.41099999999994 413.646 294.19399999999996 C 421.538 286.96 428.611 278.80099999999993 434.68 269.861 C 449.587 247.933 458.373 221.509 458.579 193.045 L 458.579 192.726 L 458.582 192.028 C 458.582 115.475 396.524 53.41799999999998 319.97 53.41799999999998 C 281.696 53.41799999999998 247.043 68.93199999999997 221.96000000000004 94.01499999999999 C 197.09600000000003 118.87699999999998 181.63600000000002 153.137 181.36400000000003 191.01099999999997 L 181.359 192.027 L 181.359 192.027 z M 278.815 166.568 C 290.181 155.202 305.075 149.52 319.971 149.52200000000002 C 334.867 149.52200000000002 349.761 155.20200000000003 361.126 166.568 C 368.623 174.067 373.649 183.10000000000002 376.18899999999996 192.662 C 378.83099999999996 202.517 378.83099999999996 212.931 376.198 222.791 C 373.65 232.34799999999998 368.623 241.38299999999998 361.126 248.88 C 349.76099999999997 260.245 334.864 265.928 319.969 265.928 C 305.075 265.926 290.181 260.245 278.816 248.88 C 271.32 241.381 266.294 232.346 263.75199999999995 222.786 C 261.11199999999997 212.931 261.11199999999997 202.515 263.74199999999996 192.657 C 266.293 183.099 271.319 174.067 278.815 166.568 z" stroke-linecap="round" />
</g>
		<g transform="matrix(1 0 0 1 34.87 -48.28)" id="uObptZZuZKaNKCsDISob3"  >
<path style="stroke: none; stroke-width: 1; stroke-dasharray: none; stroke-linecap: butt; stroke-dashoffset: 0; stroke-linejoin: miter; stroke-miterlimit: 4; fill: rgb(221,38,69); fill-rule: nonzero; opacity: 1;" vector-effect="non-scaling-stroke"  transform=" translate(-290.87, -207.72)" d="M 263.751 222.785 C 266.29299999999995 232.345 271.31899999999996 241.38 278.815 248.879 C 290.181 260.24399999999997 305.075 265.925 319.968 265.923 L 319.97 149.522 C 305.074 149.51999999999998 290.18 155.202 278.814 166.56799999999998 C 271.31800000000004 174.06699999999998 266.29200000000003 183.1 263.75 192.65999999999997 C 261.11 202.514 261.11 212.931 263.751 222.785 z" stroke-linecap="round" />
</g>
		<g transform="matrix(1 0 0 1 93.07 -48.28)" id="gmjWW8oREkiOiEBpgX9dT"  >
<path style="stroke: none; stroke-width: 1; stroke-dasharray: none; stroke-linecap: butt; stroke-dashoffset: 0; stroke-linejoin: miter; stroke-miterlimit: 4; fill: rgb(221,38,69); fill-rule: nonzero; opacity: 1;" vector-effect="non-scaling-stroke"  transform=" translate(-349.07, -207.72)" d="M 319.971 149.522 L 319.969 265.923 C 334.864 265.927 349.76099999999997 260.244 361.126 248.879 C 368.623 241.382 373.649 232.34699999999998 376.18899999999996 222.78699999999998 C 378.83099999999996 212.92999999999998 378.83099999999996 202.51599999999996 376.18899999999996 192.65999999999997 C 373.64899999999994 183.09799999999996 368.623 174.06499999999997 361.126 166.56599999999997 C 349.761 155.202 334.867 149.522 319.971 149.522 z" stroke-linecap="round" />
</g>
		<g transform="matrix(1 0 0 1 0 0)" id="P09r9NsWBK_WqIhg_nZrX"  >
<path style="stroke: none; stroke-width: 1; stroke-dasharray: none; stroke-linecap: butt; stroke-dashoffset: 0; stroke-linejoin: miter; stroke-miterlimit: 4; fill: rgb(0,0,3); fill-rule: nonzero; opacity: 1;" vector-effect="non-scaling-stroke"  transform=" translate(-256, -256)" d="M 319.973 0.001 C 214.08800000000002 0.001 127.94400000000002 86.143 127.94400000000002 192.028 C 127.94400000000002 233.408 141.10100000000003 271.772 163.45000000000002 303.158 L 146.561 320.048 C 144.549 318.076 141.846 316.967 139.026 316.967 C 136.17000000000002 316.967 133.43 318.102 131.41000000000003 320.12199999999996 L 12.486 439.047 C 4.434 447.096 0 457.834 0 469.28 C 0 480.72599999999994 4.434 491.462 12.486 499.513 C 20.537 507.565 31.273 512 42.72 512 C 54.165 512 64.90299999999999 507.565 72.952 499.513 L 191.87900000000002 380.587 C 193.89900000000003 378.568 195.03500000000003 375.828 195.03500000000003 372.971 C 195.03500000000003 370.15 193.925 367.446 191.95200000000003 365.433 L 208.83700000000002 348.546 C 240.22600000000003 370.89799999999997 278.593 384.057 319.97400000000005 384.057 C 425.857 384.056 512 297.913 512 192.027 C 512 86.143 425.856 0.001 319.973 0.001 z M 57.719 484.283 C 53.738 488.26500000000004 48.410000000000004 490.459 42.72 490.459 C 37.028 490.459 31.698999999999998 488.265 27.714999999999996 484.282 C 19.443999999999996 476.01 19.443999999999996 462.549 27.716999999999995 454.27799999999996 L 139.02599999999998 342.967 L 169.03099999999998 372.972 L 57.719 484.283 z M 176.723 350.198 L 161.79700000000003 335.274 L 176.99800000000002 320.072 C 181.698 325.315 186.68 330.297 191.92300000000003 334.997 L 176.723 350.198 z M 319.973 362.516 C 225.96500000000003 362.516 149.484 286.035 149.484 192.02700000000002 C 149.484 98.02100000000002 225.965 21.54000000000002 319.973 21.54000000000002 C 413.97900000000004 21.54000000000002 490.46000000000004 98.02000000000002 490.46000000000004 192.02700000000002 C 490.46 286.034 413.98 362.516 319.973 362.516 z" stroke-linecap="round" />
</g>
		<g transform="matrix(1 0 0 1 -52.6 -128.4)" id="Ct2EL82C3SslNUZbtpiiz"  >
<path style="stroke: none; stroke-width: 1; stroke-dasharray: none; stroke-linecap: butt; stroke-dashoffset: 0; stroke-linejoin: miter; stroke-miterlimit: 4; fill: rgb(0,0,3); fill-rule: nonzero; opacity: 1;" vector-effect="non-scaling-stroke"  transform=" translate(-203.4, -127.6)" d="M 214.344 86.398 C 194.439 106.30099999999999 180.605 131.333 174.339 158.784 C 173.014 164.583 176.643 170.356 182.441 171.68099999999998 C 183.247 171.86499999999998 184.052 171.95299999999997 184.847 171.95299999999997 C 189.75900000000001 171.95299999999997 194.198 168.569 195.33700000000002 163.57799999999997 C 200.699 140.08399999999997 212.53900000000002 118.66399999999997 229.574 101.62999999999997 C 233.78 97.42499999999997 233.781 90.60599999999997 229.574 86.39899999999997 C 225.369 82.194 218.55 82.193 214.344 86.398 z" stroke-linecap="round" />
</g>
		<g transform="matrix(1 0 0 1 131.54 20.75)" id="Bg-9Dv0beUT-Rci5is0Z2"  >
<path style="stroke: none; stroke-width: 1; stroke-dasharray: none; stroke-linecap: butt; stroke-dashoffset: 0; stroke-linejoin: miter; stroke-miterlimit: 4; fill: rgb(0,0,3); fill-rule: nonzero; opacity: 1;" vector-effect="non-scaling-stroke"  transform=" translate(-387.54, -276.75)" d="M 457.501 212.372 C 451.70099999999996 211.04700000000003 445.928 214.67700000000002 444.604 220.47500000000002 C 431.24699999999996 278.995 379.995 319.865 319.96999999999997 319.865 C 314.022 319.865 309.2 324.688 309.2 330.635 C 309.2 336.58299999999997 314.022 341.405 319.96999999999997 341.405 C 353.67699999999996 341.405 386.753 329.83099999999996 413.106 308.816 C 439.459 287.799 458.103 258.128 465.604 225.26699999999997 C 466.927 219.469 463.3 213.695 457.501 212.372 z" stroke-linecap="round" />
</g>
		<g transform="matrix(1 0 0 1 63.97 -63.97)" id="HRVPw5WqHz8GHr3K2vEwB"  >
<path style="stroke: none; stroke-width: 1; stroke-dasharray: none; stroke-linecap: butt; stroke-dashoffset: 0; stroke-linejoin: miter; stroke-miterlimit: 4; fill: rgb(0,0,3); fill-rule: nonzero; opacity: 1;" vector-effect="non-scaling-stroke"  transform=" translate(-319.97, -192.03)" d="M 319.971 276.696 C 334.752 276.696 348.81600000000003 272.06800000000004 360.529 263.516 L 366.755 269.74 C 368.85699999999997 271.843 371.614 272.895 374.36899999999997 272.895 C 377.126 272.895 379.88199999999995 271.84499999999997 381.986 269.74 C 386.191 265.534 386.191 258.71500000000003 381.986 254.508 L 375.758 248.28 C 378.64 244.319 381.037 240.115 382.972 235.75300000000001 L 391.49699999999996 238.036 C 392.431 238.286 393.36799999999994 238.406 394.29099999999994 238.406 C 399.0469999999999 238.406 403.39899999999994 235.232 404.68699999999995 230.42000000000002 C 406.22599999999994 224.675 402.816 218.77 397.07099999999997 217.23000000000002 L 388.522 214.94000000000003 C 389.02299999999997 210.14100000000002 389.02299999999997 205.30200000000002 388.522 200.50400000000002 L 397.07099999999997 198.21300000000002 C 402.816 196.67400000000004 406.22599999999994 190.76900000000003 404.68699999999995 185.02300000000002 C 403.14799999999997 179.27800000000002 397.24099999999993 175.86400000000003 391.49699999999996 177.40700000000004 L 382.97099999999995 179.69100000000003 C 381.03799999999995 175.32900000000004 378.63899999999995 171.12600000000003 375.75699999999995 167.16400000000004 L 381.98599999999993 160.93400000000005 C 386.1909999999999 156.72800000000007 386.1909999999999 149.91000000000005 381.9839999999999 145.70300000000006 C 377.77899999999994 141.49800000000005 370.9599999999999 141.49700000000007 366.75299999999993 145.70400000000006 L 360.5279999999999 151.93000000000006 C 353.52699999999993 146.81900000000007 345.68799999999993 143.11300000000006 337.3529999999999 140.95700000000005 L 347.4229999999999 123.51800000000006 C 350.3979999999999 118.36700000000006 348.6319999999999 111.78000000000006 343.4809999999999 108.80600000000005 C 338.3319999999999 105.83200000000005 331.74399999999986 107.59700000000005 328.7689999999999 112.74800000000005 L 319.97199999999987 127.98400000000005 L 311.1709999999999 112.74200000000005 C 308.19599999999986 107.59200000000004 301.6079999999999 105.82700000000004 296.4589999999999 108.80100000000004 C 291.3079999999999 111.77600000000004 289.5419999999999 118.36200000000005 292.5169999999999 123.51300000000005 L 302.5889999999999 140.95500000000004 C 294.2539999999999 143.11000000000004 286.4109999999999 146.81500000000005 279.4099999999999 151.92800000000005 L 273.1839999999999 145.70200000000006 C 268.9789999999999 141.49600000000007 262.1599999999999 141.49600000000007 257.9529999999999 145.70100000000005 C 253.74699999999993 149.90700000000004 253.74599999999992 156.72500000000005 257.95199999999994 160.93200000000004 L 264.17999999999995 167.16200000000003 C 261.29799999999994 171.12300000000005 258.90099999999995 175.32700000000003 256.96599999999995 179.68900000000002 L 248.44099999999995 177.40500000000003 C 242.69599999999994 175.86400000000003 236.78999999999994 179.27500000000003 235.25099999999995 185.02100000000002 C 233.71199999999996 190.76700000000002 237.12199999999996 196.67200000000003 242.86699999999996 198.211 L 251.41599999999997 200.502 C 250.91499999999996 205.3 250.91499999999996 210.139 251.41599999999997 214.93800000000002 L 242.86699999999996 217.228 C 237.12199999999996 218.768 233.71199999999996 224.673 235.25099999999998 230.418 C 236.539 235.23000000000002 240.89099999999996 238.404 245.647 238.404 C 246.56799999999998 238.404 247.507 238.284 248.441 238.034 L 256.966 235.751 C 258.90000000000003 240.113 261.297 244.316 264.18 248.278 L 257.952 254.506 C 253.74699999999999 258.712 253.74699999999999 265.531 257.952 269.738 C 260.055 271.841 262.811 272.893 265.568 272.893 C 268.325 272.893 271.08 271.84299999999996 273.18399999999997 269.738 L 279.409 263.513 C 291.124 272.068 305.189 276.696 319.971 276.696 z M 286.429 174.183 C 292.791 167.821 300.645 163.50199999999998 309.19899999999996 161.525 L 309.19899999999996 253.92000000000002 C 300.64799999999997 251.943 292.794 247.62500000000003 286.43299999999994 241.26500000000001 C 286.43199999999996 241.264 286.42999999999995 241.263 286.42999999999995 241.26200000000003 C 286.42799999999994 241.26100000000002 286.42699999999996 241.26000000000002 286.42599999999993 241.25900000000004 C 267.935 222.764 267.938 192.674 286.429 174.183 z M 353.513 241.259 C 353.51099999999997 241.26 353.51 241.261 353.50899999999996 241.26199999999997 C 353.508 241.26299999999998 353.50699999999995 241.26399999999998 353.506 241.26499999999996 C 347.14399999999995 247.62499999999997 339.292 251.94299999999996 330.73799999999994 253.92099999999996 L 330.73799999999994 161.52399999999994 C 339.2919999999999 163.50099999999995 347.14699999999993 167.82099999999994 353.50899999999996 174.18299999999994 C 372.001 192.674 372.002 222.764 353.513 241.259 z" stroke-linecap="round" />
</g>
		<g transform="matrix(1 0 0 1 -74.64 -64.48)" id="o7-dBv60M4GdIdj-SdYbc"  >
<path style="stroke: none; stroke-width: 1; stroke-dasharray: none; stroke-linecap: butt; stroke-dashoffset: 0; stroke-linejoin: miter; stroke-miterlimit: 4; fill: rgb(0,0,3); fill-rule: nonzero; opacity: 1;" vector-effect="non-scaling-stroke"  transform=" translate(-181.36, -191.52)" d="M 181.43 180.24 C 181.407 180.24 181.38500000000002 180.24 181.362 180.24 C 175.446 180.24 170.631 185.019 170.593 190.943 L 170.59099999999998 192.02800000000002 C 170.59099999999998 197.97500000000002 175.41299999999998 202.79800000000003 181.361 202.79800000000003 C 187.309 202.79800000000003 192.131 197.97500000000002 192.131 192.02800000000002 L 192.133 191.07700000000003 C 192.171 185.129 187.379 180.277 181.43 180.24 z" stroke-linecap="round" />
</g>
		<g transform="matrix(1 0 0 1 202.58 -63.46)" id="h5_vdA2HOT63C88gXMVSK"  >
<path style="stroke: none; stroke-width: 1; stroke-dasharray: none; stroke-linecap: butt; stroke-dashoffset: 0; stroke-linejoin: miter; stroke-miterlimit: 4; fill: rgb(0,0,3); fill-rule: nonzero; opacity: 1;" vector-effect="non-scaling-stroke"  transform=" translate(-458.58, -192.54)" d="M 458.581 181.257 C 452.63300000000004 181.257 447.81100000000004 186.079 447.81100000000004 192.02700000000002 L 447.809 192.961 C 447.76300000000003 198.90800000000002 452.548 203.768 458.495 203.81400000000002 C 458.523 203.81400000000002 458.552 203.81400000000002 458.579 203.81400000000002 C 464.48900000000003 203.81400000000002 469.303 199.04700000000003 469.347 193.127 L 469.351 192.02700000000002 C 469.351 186.079 464.529 181.257 458.581 181.257 z" stroke-linecap="round" />
</g>
</g>
</g>
</svg>